<svg version="1" xmlns="http://www.w3.org/2000/svg" width="682.667" height="682.667" viewBox="0 0 512.000000 512.000000"><path d="M244.1 1.9c-9.5 3.6-16.1 9.8-20.3 19.1-1.7 3.6-3.5 7.5-4.1 8.8-.6 1.2-2.5 3.4-4.4 4.8-3 2.3-3.6 2.4-7.5 1.3-6.3-1.7-28.1-1.4-35.3.4-7.3 1.9-17.9 4.3-22 5.1-13 2.4-16.5 4.3-21.1 10.8-7.1 10.3-12.1 26.8-9.5 31.7 2.8 5.2 11.4 6.7 25.7 4.5 4.9-.8 11.6-1.6 14.9-1.9 11.2-.8 18.9-1.6 19.6-2.1 3.9-2.4-2.3 23-11.4 46.1-1.9 4.9-6.4 17.5-10 28-3.6 10.4-7.7 22.1-9.2 26-1.4 3.8-4 11.3-5.7 16.5-4.9 15.2-13.7 31.6-21.7 40.3-7.2 7.8-9.1 11.5-9.1 17.3 0 3-1.1 9.3-2.5 14.1-1.4 4.9-2.8 10.4-3.1 12.3-.8 4.8-3.7 11.8-10 24.2-10 19.8-20.7 49.4-34.8 96.3-16.5 55.2-18.3 64.1-15.3 74.6 3.4 11.5 11.2 19.2 29.9 29.6 5.6 3.1 15.7 2.7 19.3-.7 4.5-4.2 8-12.9 10.1-25 .8-4.7 2.8-12.8 4.4-18 1.6-5.2 3.2-11.3 3.6-13.5.3-2.2.8-4.9 1-5.9.7-4 5.6-20.3 6.9-23.3.8-1.7 1.5-3.4 1.5-3.9 0-1 11.8-32.3 18.1-48 10.7-26.8 21.3-51.2 28.5-65.8 1.9-3.7 3.4-7.7 3.4-8.8 0-3.6 5.4-11.3 7.1-10.2 1.4.8 17 1.8 29.9 1.7 24.3-.1 88.6-2.7 95-3.8 1.4-.3 5-.7 8-1 7.1-.8 11.3-1.4 18-2.6 3-.6 6.9-1.3 8.5-1.5 6-1.1 21.6-6.7 25.9-9.5 2.5-1.5 5.6-4.7 7.1-7.3 6.2-10.6 2.5-32.1-6.8-39-4.4-3.2-15.8-2.8-40.7 1.4-3 .5-8.9 1.2-13 1.6-4.1.3-9.1.8-11 1-1.9.2-6.9.6-11 .9-4.1.4-9.1.8-11 1.1-23.7 2.5-81.8 2-84.6-.9-.2-.1 1-3 2.5-6.2 1.6-3.3 7.2-17 12.5-30.5s10.1-25.4 10.6-26.5c.5-1.1 2.7-6.5 4.9-12 2.1-5.5 6.2-14.7 8.9-20.5 2.8-5.8 6.5-14.1 8.3-18.4 3.4-8.2 11-20.4 15.2-24.4 2.2-2.1 14.8-6.3 23.2-7.8 1.7-.2 3.7-.7 4.5-.9.8-.2 4.9-.7 9-1 4.1-.3 8.6-.7 10-1 1.4-.2 4.8-.7 7.5-1 2.8-.4 6.1-.8 7.5-1 1.4-.2 5.4-.6 9-1 3.6-.4 7.9-.9 9.5-1 23.2-2.5 61.8-2.5 77.7.1 1.8.3 11.5.7 21.6 1 22.4.5 23.3.2 25.9-8.4 1.1-3.7 1.7-9.4 1.7-16.5l.1-10.9-4-3.4c-2.2-1.8-4.6-3.4-5.3-3.4-.9 0-1-.5-.3-1.8.5-.9.9-2.2.9-2.7.1-1.6-4-5.6-6.8-6.7-2.7-1-13.2-3.3-19.8-4.3-2.4-.3-5.3-1-6.4-1.4-1.3-.5-3.2-.2-5 .6-1.9 1-7.1 1.6-15.3 1.8-6.8.2-13.3.6-14.5 1-1.1.3-4.6.1-7.8-.6-6.6-1.3-19.8-1.6-32.7-.6-4.9.4-12.1.9-16 1.2-3.8.3-15.8 2.3-26.5 4.5-24.7 5-26.7 5.2-29.1 4-1.7-1-1.9-1.9-1.6-8 .5-9-1.5-13.9-7.4-17.5-5.8-3.7-16.1-4.4-23.8-1.6z"/></svg>